# xmcd
# 
# Track frame offsets:
#     182
#     11320
#     24020
#     37425
#     49220
#     61495
#     72765
#     86497
#     96602
#     109147
#     117840
#     132980
#     153500
#     172155
#     185020
#     197000
#     207140
#     223980
#     239567
#     251547
#     267430
#     287630
#     302225
#     313970
# 
# Disc length: 4365
# 
# Revision: 3
# Processed by: cddbd v1.5.2PL0 Copyright (c) Steve Scherf et al.
# Submitted via: BonkEnc v1.0.8
# 
DISCID=73110b18
DTITLE=Tião Carreiro and Pardinho - Dose Dupla Vol. 10
DYEAR=0
DGENRE=
TTITLE0=Quando Cai a Chuva
TTITLE1=Nascimento de Jesus
TTITLE2=Meu Pedido
TTITLE3=Drama da Vida
TTITLE4=Quebra de Tabu
TTITLE5=Aquela Ingrata
TTITLE6=Encantos da Natureza
TTITLE7=Gaúcho Decidido
TTITLE8=Retrato do Boi Soberano
TTITLE9=Falsidade
TTITLE10=Caçador
TTITLE11=Pagode do Alá
TTITLE12=Na Paz de Deus
TTITLE13=Duelo de Amor
TTITLE14=Adeus Meu Bem, Adeus
TTITLE15=Fiz Uma Cova na Areia
TTITLE16=Tenho Muito Amor Pra Dar
TTITLE17=Vivendo Longe do Meu Bem
TTITLE18=Furacão
TTITLE19=Levanta Patrão
TTITLE20=Exemplo de Humildade
TTITLE21=Chumbo Grosso
TTITLE22=Sete Flexas
TTITLE23=Motorista do Brasil
EXTD=
EXTT0=
EXTT1=
EXTT2=
EXTT3=
EXTT4=
EXTT5=
EXTT6=
EXTT7=
EXTT8=
EXTT9=
EXTT10=
EXTT11=
EXTT12=
EXTT13=
EXTT14=
EXTT15=
EXTT16=
EXTT17=
EXTT18=
EXTT19=
EXTT20=
EXTT21=
EXTT22=
EXTT23=
PLAYORDER=
